<svg width="26" height="33" viewBox="0 0 26 33" fill="none" xmlns="http://www.w3.org/2000/svg">
<path d="M19.3638 0.040438C19.2958 -0.0356091 16.8458 0.0704566 14.7138 2.38589C12.5818 4.69932 12.9098 7.35297 12.9578 7.42101C13.0058 7.48905 15.9978 7.59512 17.9078 4.90345C19.8178 2.21178 19.4318 0.118486 19.3638 0.040438ZM25.9918 23.521C25.8958 23.3289 21.3418 21.0514 21.7658 16.6727C22.1898 12.292 25.1158 11.0913 25.1618 10.9612C25.2078 10.8311 23.9678 9.38022 22.6538 8.64577C21.6891 8.12795 20.6213 7.83128 19.5278 7.77723C19.3118 7.77122 18.5618 7.58711 17.0198 8.00937C16.0038 8.28754 13.7138 9.1881 13.0838 9.22412C12.4518 9.26015 10.5718 8.17948 8.54985 7.8933C7.25585 7.64315 5.88385 8.15546 4.90185 8.54971C3.92185 8.94195 2.05785 10.0586 0.753852 13.0265C-0.550148 15.9923 0.131852 20.6912 0.619852 22.1521C1.10785 23.611 1.86985 26.0025 3.16585 27.7476C4.31785 29.7168 5.84585 31.0837 6.48385 31.5479C7.12185 32.0122 8.92185 32.3204 10.1698 31.682C11.1738 31.0656 12.9858 30.7114 13.7018 30.7374C14.4158 30.7635 15.8238 31.0456 17.2658 31.8161C18.4078 32.2104 19.4878 32.0463 20.5698 31.606C21.6518 31.1637 23.2178 29.4867 25.0458 26.0866C25.7398 24.5056 26.0558 23.6511 25.9918 23.521Z" fill="black"/>
</svg>
